:SAMPLES-PER-SECOND 24
:FULLY-SPECIFIED
:DEGREES
376
root  23.1723 39.5837 30.476 -69.2017 -64.6582 89.008
RightUpLeg  -23.9659 -17.3704 -3.08574
RightLeg  13.2608 -19.4639 -2.98692
RightFoot  -14.2758 -0.443397 -13.5418
RightToes  -2.08645e-008 3.77894e-005 6.81332e-007
Spine  15.3598 -3.27203 -0.795661
Spine1  -2.74845 -2.48736 -5.46677
HEad  -50.6671 50.2449 -35.8065
LeftShoulder1  8.01932 -13.7774 -40.1916
LeftArm  -1.63288 25.637 -30.9105
LeftForeArm  95.0821 -80.1129 -91.0033
LeftHand  -0.343517 -3.90004 4.56053
RightShoulder  3.81164 6.71203 31.4179
RightArm  1.23515 -30.697 18.7829
RightForeArm  35.506 8.51673 8.99965
RightHand  -1.75363 7.02748 -16.6013
LeftUpLeg  -17.0123 5.11066 9.60808
LeftLeg  2.99481 10.1648 0.408469
LeftFoot  2.91168 1.8609 -14.9761
LeftToes  1.24767e-006 1.47042e-008 1.32732e-009
377
root  22.6376 39.2672 30.1156 -53.3652 -66.7599 71.0398
RightUpLeg  -25.9855 -25.754 4.28675
RightLeg  20.5935 -15.5595 -6.36279
RightFoot  -15.8905 -0.551188 -11.1572
RightToes  -2.08645e-008 3.77894e-005 6.81332e-007
Spine  11.7328 -4.07628 0.567554
Spine1  -0.160878 -3.87536 -1.61708
HEad  -45.521 51.4368 -32.8605
LeftShoulder1  7.94946 -13.7486 -39.8808
LeftArm  2.74691 26.7058 -32.4621
LeftForeArm  102.864 -80.3214 -93.5267
LeftHand  -0.172684 -4.57411 2.30495
RightShoulder  3.66071 6.43576 30.9316
RightArm  14.7914 -31.738 21.3859
RightForeArm  16.7254 23.6869 5.16615
RightHand  -1.39126 7.2108 -13.0899
LeftUpLeg  -10.0184 0.944355 1.70602
LeftLeg  3.76632 13.6744 -1.19084
LeftFoot  -0.568625 1.56231 -16.475
LeftToes  1.24767e-006 1.47042e-008 1.32732e-009
378
root  22.0334 38.8436 29.5306 -29.679 -64.585 45.3311
RightUpLeg  -26.3761 -31.1296 11.4296
RightLeg  23.3951 -19.0397 -8.98986
RightFoot  -17.1068 -0.570387 -9.01293
RightToes  -2.08645e-008 3.77894e-005 6.81332e-007
Spine  6.39723 -5.21334 -0.372552
Spine1  3.05527 -6.64301 5.86636
HEad  -39.7903 50.8894 -29.5924
LeftShoulder1  7.67365 -13.4783 -39.034
LeftArm  8.80294 23.7146 -33.8516
LeftForeArm  107.498 -80.5053 -94.0906
LeftHand  -0.0478939 -5.37745 0.83128
RightShoulder  3.59489 6.34056 30.616
RightArm  9.12216 -31.8204 23.8843
RightForeArm  16.2626 28.8596 5.36547
RightHand  -1.26208 6.94981 -12.1616
LeftUpLeg  -5.22983 5.98352 -4.44072
LeftLeg  12.9401 12.6279 1.75856
LeftFoot  -3.85638 1.02422 -15.2328
LeftToes  1.24767e-006 1.47042e-008 1.32732e-009
379
root  21.4532 38.4254 28.6387 -9.04541 -55.0159 23.2409
RightUpLeg  -27.2293 -38.5107 20.5917
RightLeg  20.3028 -22.8587 -8.49482
RightFoot  -17.9821 -0.623955 -8.64422
RightToes  -2.08645e-008 3.77894e-005 6.81332e-007
Spine  2.65259 -6.97629 -3.84912
Spine1  2.73504 -10.5112 16.3608
HEad  -34.5911 47.3181 -25.2729
LeftShoulder1  7.50111 -13.2836 -38.5535
LeftArm  16.8377 16.5091 -35.5217
LeftForeArm  94.5888 -80.4234 -80.2262
LeftHand  -0.0528375 -5.72108 0.876297
RightShoulder  3.6896 6.36292 31.5043
RightArm  3.45157 -33.6423 25.0032
RightForeArm  15.9454 31.5614 6.03352
RightHand  -1.33581 6.50479 -13.3
LeftUpLeg  -3.5864 8.60229 -5.74659
LeftLeg  28.1638 13.8215 8.42956
LeftFoot  -4.10178 0.899952 -13.7976
LeftToes  1.24767e-006 1.47042e-008 1.32732e-009
380
root  20.9155 38.1797 27.4515 0.982666 -41.6152 12.8574
RightUpLeg  -27.6505 -37.1377 24.2086
RightLeg  17.6777 -33.4766 -5.833
RightFoot  -17.0216 -0.544698 -8.65334
RightToes  -2.08645e-008 3.77894e-005 6.81332e-007
Spine  1.22471 -8.69122 -9.87329
Spine1  0.533805 -13.6188 26.4941
HEad  -33.7816 40.6733 -23.051
LeftShoulder1  7.57531 -13.4197 -38.6288
LeftArm  24.7941 5.84673 -37.4149
LeftForeArm  75.6957 -79.2782 -61.5334
LeftHand  -0.127117 -5.57356 1.66654
RightShoulder  3.82227 6.34615 32.9227
RightArm  -3.64799 -34.691 27.425
RightForeArm  17.0813 32.1107 6.10636
RightHand  -1.24041 6.99038 -11.9312
LeftUpLeg  -4.12767 9.46397 -4.2173
LeftLeg  43.277 12.74 12.8418
LeftFoot  -2.49593 1.10682 -14.0668
LeftToes  1.24767e-006 1.47042e-008 1.32732e-009
381
root  20.5311 38.1042 26.0679 5.15283 -29.5031 8.6955
RightUpLeg  -34.1527 -41.4905 31.5968
RightLeg  17.7403 -33.3418 -5.4892
RightFoot  -14.6769 -0.310776 -7.13924
RightToes  -2.08645e-008 3.77894e-005 6.81332e-007
Spine  1.94319 -9.67216 -14.5954
Spine1  -0.752144 -15.3058 32.2208
HEad  -36.4687 33.8796 -22.4532
LeftShoulder1  7.40645 -13.3841 -37.7587
LeftArm  30.5931 -4.95674 -40.3568
LeftForeArm  61.6414 -77.4748 -49.0598
LeftHand  -0.165974 -5.72163 2.05715
RightShoulder  3.86471 6.35569 33.315
RightArm  -9.9953 -32.3771 31.9844
RightForeArm  17.582 30.5205 5.68616
RightHand  -1.18846 7.87044 -10.7266
LeftUpLeg  -5.03394 13.633 -2.42931
LeftLeg  54.0623 7.3584 11.182
LeftFoot  -0.886127 1.51907 -16.4153
LeftToes  1.24767e-006 1.47042e-008 1.32732e-009
